<svg xmlns="http://www.w3.org/2000/svg" viewBox="0 0 800 600">
  <!-- Пример плана корпуса 1, этаж 1 -->
  <defs>
    <style>
      .room-label { font-family: Arial, sans-serif; font-size: 14px; fill: #333; }
      .room-title { font-family: Arial, sans-serif; font-size: 16px; font-weight: bold; fill: #2E3A4D; }
      .wall { stroke: #2E3A4D; stroke-width: 3; fill: none; }
      .room { fill: #f8f9fa; stroke: #2E3A4D; stroke-width: 2; }
      .door { fill: white; stroke: #2E3A4D; stroke-width: 2; }
      .stairs { fill: #E5E7EB; stroke: #2E3A4D; stroke-width: 2; }
    </style>
  </defs>

  <!-- Заголовок -->
  <text x="400" y="30" text-anchor="middle" class="room-title">Корпус 1 - Этаж 1 (Пример)</text>

  <!-- Внешние стены -->
  <rect x="50" y="50" width="700" height="500" class="wall"/>

  <!-- Коридор -->
  <rect x="50" y="250" width="700" height="100" fill="#fff" stroke="#2E3A4D" stroke-width="2"/>
  <text x="400" y="305" text-anchor="middle" class="room-label">Коридор</text>

  <!-- Комната 101 -->
  <rect x="50" y="50" width="150" height="200" class="room"/>
  <text x="125" y="145" text-anchor="middle" class="room-title">101</text>
  <text x="125" y="165" text-anchor="middle" class="room-label">Аудитория</text>

  <!-- Комната 102 -->
  <rect x="200" y="50" width="150" height="200" class="room"/>
  <text x="275" y="145" text-anchor="middle" class="room-title">102</text>
  <text x="275" y="165" text-anchor="middle" class="room-label">Лаборатория</text>

  <!-- Комната 103 -->
  <rect x="350" y="50" width="200" height="200" class="room"/>
  <text x="450" y="145" text-anchor="middle" class="room-title">103</text>
  <text x="450" y="165" text-anchor="middle" class="room-label">Лекционная</text>

  <!-- Комната 104 -->
  <rect x="550" y="50" width="200" height="200" class="room"/>
  <text x="650" y="145" text-anchor="middle" class="room-title">104</text>
  <text x="650" y="165" text-anchor="middle" class="room-label">Компьютерный класс</text>

  <!-- Лестница -->
  <rect x="50" y="350" width="100" height="200" class="stairs"/>
  <text x="100" y="445" text-anchor="middle" class="room-label">Лестница</text>
  <line x1="60" y1="370" x2="140" y2="370" stroke="#2E3A4D" stroke-width="1"/>
  <line x1="60" y1="390" x2="140" y2="390" stroke="#2E3A4D" stroke-width="1"/>
  <line x1="60" y1="410" x2="140" y2="410" stroke="#2E3A4D" stroke-width="1"/>
  <line x1="60" y1="430" x2="140" y2="430" stroke="#2E3A4D" stroke-width="1"/>
  <line x1="60" y1="450" x2="140" y2="450" stroke="#2E3A4D" stroke-width="1"/>
  <line x1="60" y1="470" x2="140" y2="470" stroke="#2E3A4D" stroke-width="1"/>
  <line x1="60" y1="490" x2="140" y2="490" stroke="#2E3A4D" stroke-width="1"/>
  <line x1="60" y1="510" x2="140" y2="510" stroke="#2E3A4D" stroke-width="1"/>
  <line x1="60" y1="530" x2="140" y2="530" stroke="#2E3A4D" stroke-width="1"/>

  <!-- Комната 105 -->
  <rect x="150" y="350" width="200" height="200" class="room"/>
  <text x="250" y="445" text-anchor="middle" class="room-title">105</text>
  <text x="250" y="465" text-anchor="middle" class="room-label">Библиотека</text>

  <!-- Комната 106 -->
  <rect x="350" y="350" width="200" height="200" class="room"/>
  <text x="450" y="445" text-anchor="middle" class="room-title">106</text>
  <text x="450" y="465" text-anchor="middle" class="room-label">Методический кабинет</text>

  <!-- Комната 107 -->
  <rect x="550" y="350" width="200" height="200" class="room"/>
  <text x="650" y="445" text-anchor="middle" class="room-title">107</text>
  <text x="650" y="465" text-anchor="middle" class="room-label">Преподавательская</text>

  <!-- Двери (белые прямоугольники) -->
  <rect x="120" y="248" width="15" height="4" class="door"/>
  <rect x="270" y="248" width="15" height="4" class="door"/>
  <rect x="445" y="248" width="15" height="4" class="door"/>
  <rect x="645" y="248" width="15" height="4" class="door"/>
  <rect x="245" y="348" width="15" height="4" class="door"/>
  <rect x="445" y="348" width="15" height="4" class="door"/>
  <rect x="645" y="348" width="15" height="4" class="door"/>

  <!-- Легенда -->
  <text x="50" y="580" class="room-label" font-size="12">Это пример плана. Замените файл на реальный план корпуса.</text>
</svg>
